<?xml version="1.0" encoding="UTF-8"?>
<svg width="194.54mm" height="112.73mm" version="1.1" viewBox="0 0 194.54 112.73" xml:space="preserve" xmlns="http://www.w3.org/2000/svg"><g transform="translate(-5.3442 -26.073)"><g transform="matrix(.97535 0 0 .97535 2.5296 2.0322)"><path d="m165.64 136.64c-11.604-1.917-13.737-18.836-3.0137-23.909 6.0658-2.8696 13.575-0.27096 16.445 5.6908l0.82782 1.7198 0.02-1.5875c0.0444-3.5121 2.2765-5.79 6.5776-6.7124 6.0725-1.3023 12.745 1.7279 12.745 5.7879 0 2.3583-3.3994 3.2097-4.4666 1.1188-1.9845-3.8882-10.177-3.6257-9.1933 0.29459 0.22032 0.87782 1.3133 1.4456 4.9292 2.5604 8.2595 2.5466 11.102 6.2744 8.3562 10.959-3.5688 6.0898-17.315 5.4944-19.448-0.84237l-0.46663-1.3858-1.005 1.4592c-2.5934 3.7655-7.3984 5.6576-12.308 4.8467zm5.2219-5.0905c4.902-2.5674 4.9823-11.789 0.12747-14.643-4.6097-2.7097-9.7134 1.2256-9.6857 7.4683 0.0262 5.911 4.9354 9.5961 9.5582 7.175zm21.314 0.25105c3.3272-1.6106 2.1701-3.5929-3.1205-5.3456-5.0591-1.676-7.1746-2.9138-8.2766-4.8425l-0.71929-1.259v3.8808c0 3.8808 0 3.8808 0.7181 3.6097 1.1261-0.42514 2.105 0.0543 2.7215 1.333 1.4619 3.032 5.3834 4.2177 8.6768 2.6235zm-114.27 3.4483-0.89958-0.89959v-14.407c0-17.205 0.0101-17.244 4.4842-17.202 4.0421 0.0381 4.2232 0.38382 9.6702 18.459 0.96476 3.2015 1.843 5.9113 1.9516 6.0219 0.10865 0.11058 1.3044-3.3422 2.6572-7.6729 3.8812-12.425 4.2639-13.605 4.6584-14.368 1.6765-3.2421 7.0372-3.3342 8.5799-0.14743 0.72496 1.4976 0.85748 28.151 0.14679 29.525-1.073 2.0749-4.0836 2.1831-5.225 0.18779-0.24581-0.42972-0.36735-3.3821-0.46507-11.297l-0.13229-10.716-0.83711 2.6458c-0.46041 1.4552-1.9286 6.2177-3.2627 10.583-3.1016 10.15-3.2608 10.399-6.4808 10.132-2.4054-0.19948-2.88-0.90163-4.6125-6.8242-2.2545-7.7072-4.8485-16.014-5.0774-16.259-0.13694-0.1466-0.23479 4.2476-0.23479 10.544v10.795l-0.89958 0.89959c-0.73747 0.73747-1.0998 0.89958-2.0108 0.89958-0.911 0-1.2734-0.16211-2.0108-0.89958zm37.73 0.65216c-3.365-1.0273-5.2971-3.4725-5.2858-6.6894 0.0146-4.1662 2.341-6.0324 9.3203-7.4762 3.4992-0.72388 5.3094-1.4228 5.7326-2.2134 2.1276-3.9755-6.5694-5.6619-8.8786-1.7216-1.9307 3.2946-5.9542 1.6421-4.4964-1.8467 2.359-5.646 16.456-5.8904 18.982-0.32917 0.44414 0.97786 0.48973 1.8897 0.495 9.9009l6e-3 8.8238-0.89958 0.89959c-1.4884 1.4884-4.184 0.9537-4.7881-0.94986-0.1497-0.47165-0.2379-0.4537-1.4032 0.28547-2.2068 1.3998-6.4353 2.0336-8.7841 1.3166zm7.8525-4.6528c1.7944-0.79816 3.5552-6.726 2.0032-6.7437-0.46168-5e-3 -6.376 1.4024-7.3869 1.7581-1.6832 0.59237-2.4052 2.1816-1.8235 4.0141 0.56042 1.7657 4.291 2.2686 7.2072 0.97144zm11.137 4.4385c-1.196-0.74167-1.2625-1.3678-1.2625-11.894 0-10.859 0.0248-11.046 1.5788-11.849 1.6548-0.85572 3.6594-0.12769 4.2658 1.5492l0.33591 0.92893 0.98973-0.78388c4.6116-3.6525 12.205-2.0601 13.682 2.869 0.44079 1.4712 0.43944 17.226-2e-3 18.194-0.83868 1.8407-3.9599 1.9314-5.1703 0.15027-0.40904-0.60193-0.48309-1.5862-0.59902-7.9629-0.14298-7.8636-0.13787-7.836-1.6985-9.2062-1.8793-1.65-4.77-1.2502-6.4 0.88522-0.76505 1.0023-0.76505 1.0023-0.89734 8.2997-0.13851 7.6404-0.20133 8.0431-1.3838 8.8713-0.76843 0.53822-2.5308 0.51195-3.4391-0.0513z" fill="#245e4d" stroke="#1f5043"/><path d="m168.35 100.25c-2.7388-1.102-0.83505-4.5854 2.506-4.5854 3.8914 0 4.7033-1.6015 3.009-5.9351-0.60236-1.5406-1.5549-4.08-2.1167-5.6429s-1.9271-5.1983-3.0339-8.0785c-2.5316-6.5877-2.5378-8.3972-0.031-9.0264 2.1584-0.54173 2.5155 0.0246 6.1421 9.7427 1.5252 4.0869 2.8216 7.4804 2.881 7.541 0.21668 0.22121 0.43387-0.30161 3.3964-8.1758 3.2779-8.7127 3.5233-9.139 5.2328-9.0942 2.8638 0.0751 3.1444 1.8719 1.1508 7.3678-0.79228 2.1841-2.7043 7.4835-4.2489 11.776-4.0622 11.29-4.0946 11.369-5.072 12.451-1.4781 1.6361-7.3893 2.6353-9.8155 1.6591zm-55.491-3.5659c-16.668-2.0077-14.703-28.007 2.1167-28.007 16.613 0 18.821 26.28 2.346 27.924-0.85375 0.0852-1.7904 0.18891-2.0814 0.23039-0.29105 0.0415-1.3626-0.025-2.3812-0.14766zm4.8052-5.4999c3.1422-1.4267 5.1936-5.5555 4.7413-9.5426-1.2742-11.234-14.82-10.266-14.82 1.0583 0 6.4694 5.0862 10.751 10.078 8.4843zm-30.001 4.4899c-1.6437-0.74617-1.6873-0.85103-7.1852-17.293-5.8335-17.446-5.9475-18.08-3.4784-19.357 3.3526-1.7337 3.9061-0.90502 8.2152 12.299 3.9469 12.094 4.5133 13.66 4.7697 13.19 0.10723-0.19667 1.9502-5.6559 4.0954-12.132 2.1453-6.4757 4.1197-12.086 4.3878-12.467 1.9668-2.7955 6.1633-0.76275 5.7998 2.8093-0.0864 0.84945-10.062 30.611-10.553 31.485-0.9811 1.7458-3.8839 2.4485-6.0509 1.4648zm42.262 0.22235c-0.9837-0.39226-1.8002-1.2568-2.1296-2.2552-0.57435-1.7403-0.45301-1.9214 7.954-11.867 1.107-1.3097 3.0065-3.5719 4.221-5.0271l2.2082-2.6458-6.0607-0.13229c-3.3334-0.0728-6.2104-0.22914-6.3933-0.3475-1.2167-0.78727-1.3781-3.1658-0.2932-4.3206 0.58576-0.62351 0.58576-0.62351 9.5486-0.62351 10.897 0 11.318 0.1316 11.318 3.5414 0 1.3652 0.35004 0.88839-8.5606 11.662-3.0043 3.6324-5.4624 6.6982-5.4624 6.813s2.8629 0.20872 6.362 0.20872c7.4214 0 7.6609 0.0788 7.6609 2.5219 0 2.7165-0.21524 2.7722-10.629 2.753-5.3736-0.01-9.3524-0.12445-9.7436-0.28047z" fill="#fe771b"/><path d="m39.903 116.42c-1.6277-0.88316-1.5247 2.1536-1.5247-44.962 0-37.937 0.04743-43.113 0.40135-43.797 1.0563-2.0428 4.7406-2.1321 6.0416-0.14646 0.67137 1.0246 0.67137 86.863 0 87.887-0.89639 1.3681-3.3409 1.8741-4.9183 1.0182zm-12.531-6.5708-0.89958-0.89959v-70.175l0.90571-0.9883c1.5482-1.6894 4.5916-1.2808 5.6388 0.757 0.52615 1.0238 0.47884 69.572-0.04872 70.592-0.98144 1.8979-4.0242 2.2861-5.5962 0.71407zm23.923 0.44508c-1.4824-0.91956-1.4067 1.0496-1.4067-36.608 0-34.866 0-34.866 0.55314-35.613 1.6806-2.2697 5.7471-1.4586 6.2898 1.2545 0.37696 1.8848 0.18862 68.479-0.19627 69.4-0.79098 1.8931-3.4375 2.6839-5.2399 1.5658zm10.904-13.907c-1.9629-0.99325-1.8778 0.0328-1.7988-21.689l0.0711-19.553 0.9883-0.90564c1.6532-1.5149 4.6775-1.1528 5.6218 0.67321 0.34809 0.67314 0.40135 3.3626 0.40135 20.267v19.491l-1.0272 1.0272c-1.1266 1.1266-2.8424 1.4042-4.2565 0.68872z" fill="#fe771b"/><path d="m41.025 138.36c-14.456-2.6437-24.141-11.949-27.228-26.161-0.95665-4.4051-1.9097-17.248-1.4922-20.108 0.95169-6.519-1.575-16.035-5.395-20.319-2.0224-2.268-2.0724-3.1404-0.22484-3.9198 8.4071-3.5466 12.62 5.8641 12.64 28.236 0.01824 20.23 6.5337 31.487 20.262 35.01 4.4687 1.1468 7.3513 1.2322 12.568 0.37261 3.2642-0.53791 4.8606 0.29129 7.3522 3.8189l0.6109 0.86491-1.4614 0.64628c-4.1116 1.8183-12.271 2.5401-17.632 1.5598z" fill="#245e4d" stroke="#1f5043" style="-inkscape-stroke:none;font-variation-settings:normal"/></g></g></svg>
